<?xml version="1.0" encoding="utf-8"?>
<svg viewBox="0 0 500 500" xmlns="http://www.w3.org/2000/svg">
  <g transform="matrix(0.079426, 0, 0, -0.079426, 42.090443, 438.202728)" fill="#000000" stroke="none" style="">
    <path d="M2225 4985 c-572 -66 -1089 -316 -1496 -724 -134 -135 -212 -231 -319 -392 -371 -561 -495 -1239 -350 -1914 99 -457 366 -933 706 -1254 404 -382 838 -591 1419 -683 108 -17 513 -17 630 1 446 65 841 227 1180 482 324 243 601 580 762 928 166 357 237 671 237 1051 0 422 -78 762 -259 1125 -185 373 -417 652 -750 903 -313 234 -704 398 -1110 462 -170 28 -482 35 -650 15z m135 -340 l0 -65 140 0 140 0 0 65 0 65 35 0 c53 0 239 -30 249 -40 5 -5 3 -29 -3 -57 -7 -26 -11 -52 -10 -58 1 -9 154 -55 235 -71 31 -6 32 -5 44 47 7 30 14 57 17 61 6 12 273 -95 273 -110 0 -3 -14 -27 -31 -54 -16 -28 -28 -52 -26 -54 9 -10 231 -134 238 -134 4 0 20 22 36 50 15 27 31 50 35 50 9 0 203 -147 219 -166 10 -12 5 -22 -32 -60 l-43 -44 99 -100 99 -100 46 45 46 45 51 -62 c65 -81 127 -168 122 -172 -2 -2 -25 -15 -52 -30 -26 -16 -47 -32 -47 -38 0 -5 20 -42 44 -81 24 -40 53 -91 65 -115 l21 -42 53 27 c28 16 55 29 58 31 7 3 58 -106 93 -200 l26 -68 -58 -16 c-31 -9 -59 -18 -61 -20 -2 -1 12 -62 30 -134 l34 -132 33 6 c17 3 47 9 65 12 l33 6 12 -78 c6 -44 15 -109 18 -146 l7 -68 -67 0 -66 0 0 -140 0 -140 66 0 67 0 -7 -67 c-3 -38 -12 -103 -18 -147 l-12 -78 -33 6 c-18 3 -48 9 -65 12 l-33 6 -33 -132 c-19 -72 -32 -133 -30 -135 2 -1 29 -10 60 -19 l57 -16 -29 -80 c-23 -63 -73 -175 -84 -187 -2 -2 -28 11 -59 28 l-56 30 -22 -43 c-12 -24 -41 -75 -65 -115 -24 -39 -44 -76 -44 -81 0 -6 21 -22 48 -38 26 -15 49 -28 51 -30 5 -4 -57 -91 -122 -172 l-51 -62 -46 45 -46 45 -99 -100 -99 -100 44 -45 45 -46 -35 -30 c-59 -49 -191 -149 -198 -149 -4 0 -20 24 -36 53 -16 28 -30 53 -31 54 -1 2 -51 -26 -111 -62 -60 -36 -115 -68 -123 -73 -10 -6 -6 -19 19 -62 39 -65 41 -62 -104 -119 -143 -56 -137 -56 -153 9 -8 30 -16 57 -18 58 -3 3 -222 -50 -262 -63 -8 -3 -7 -20 5 -64 9 -33 14 -62 11 -65 -6 -7 -211 -36 -253 -36 l-36 0 0 63 0 62 -140 0 -140 0 0 -62 0 -63 -36 0 c-40 0 -246 29 -253 36 -3 3 10 75 22 120 2 6 -231 72 -259 73 -6 1 -18 -26 -27 -58 l-17 -60 -67 23 c-80 27 -203 82 -203 91 0 3 14 30 31 60 l30 54 -51 26 c-29 15 -84 46 -123 71 l-71 44 -30 -55 c-17 -30 -34 -55 -37 -55 -6 0 -148 107 -204 154 l-30 25 45 45 44 46 -99 100 -99 100 -47 -46 -47 -46 -68 89 c-99 128 -104 135 -104 143 0 4 23 19 50 34 28 15 50 32 50 38 0 6 -17 38 -39 72 -21 34 -50 85 -65 114 -14 28 -28 52 -31 52 -2 0 -27 -14 -55 -30 -28 -17 -53 -30 -56 -30 -6 0 -51 101 -85 192 l-29 78 61 17 c57 16 60 18 55 42 -26 112 -63 242 -69 242 -4 0 -32 -5 -62 -12 -30 -7 -57 -10 -59 -8 -6 6 -36 223 -36 259 l0 30 65 0 64 0 0 140 0 140 -64 0 -65 0 0 30 c0 36 30 253 36 259 2 2 29 -1 59 -8 30 -7 58 -12 61 -12 4 0 20 49 35 108 47 178 50 157 -20 176 l-61 17 26 68 c27 71 85 202 90 202 2 0 26 -13 54 -30 28 -16 53 -30 55 -30 3 0 16 23 30 51 14 27 44 79 65 115 22 35 40 68 40 74 0 5 -22 21 -50 36 -27 15 -50 30 -50 34 0 8 5 15 104 143 l68 89 47 -46 47 -46 99 100 99 100 -43 44 c-38 39 -42 47 -31 61 17 21 208 165 218 165 4 0 21 -25 37 -55 l30 -54 30 20 c16 11 72 42 123 70 l93 51 -31 55 c-17 30 -30 56 -28 58 13 11 136 67 196 89 l72 26 17 -61 c17 -60 17 -61 47 -55 83 16 241 64 239 72 -1 5 -7 31 -14 57 -7 29 -8 52 -2 58 11 11 169 36 236 38 l47 1 0 -65z" style="paint-order: stroke markers; fill: rgb(255, 255, 255);"/>
    <path d="M2315 4449 c-439 -42 -851 -233 -1174 -544 -602 -580 -768 -1462 -418 -2228 226 -492 688 -895 1200 -1048 396 -117 794 -113 1182 11 583 188 1058 661 1251 1246 127 385 133 768 19 1163 -120 418 -395 801 -755 1053 -380 266 -848 390 -1305 347z m490 -112 c192 -36 330 -80 495 -159 513 -243 891 -716 1014 -1269 94 -425 45 -844 -143 -1226 -149 -302 -360 -544 -636 -728 -244 -162 -479 -253 -780 -300 -162 -26 -465 -17 -625 18 -219 48 -394 115 -572 220 -505 297 -836 804 -908 1390 -18 145 -8 454 20 582 134 626 553 1126 1146 1367 98 40 312 97 424 113 132 18 449 14 565 -8z" style="paint-order: stroke markers; fill: rgb(255, 255, 255);"/>
  </g>
  <text style="fill: rgb(255, 255, 255); font-family: Arial, sans-serif; font-size: 242.9px; paint-order: stroke markers; stroke: rgb(255, 255, 255); stroke-miterlimit: 1; white-space: pre;" x="153.795" y="322.188">N</text>
  <rect x="158.701" y="300.998" width="48.417" height="22.674" style="paint-order: stroke; fill: rgb(255, 255, 255); stroke: rgb(255, 255, 255);"/>
  <rect x="273.661" y="146.841" width="48.417" height="22.674" style="paint-order: fill; fill: rgb(255, 255, 255); stroke: rgb(255, 255, 255);"/>
  <g>
    <rect x="156.41" y="147.153" width="65.977" height="22.674" style="paint-order: fill; fill: rgb(255, 255, 255); stroke: rgb(255, 255, 255);"/>
    <rect x="254.906" y="247.482" width="58.335" height="25.555" style="paint-order: fill; fill: rgb(255, 255, 255); stroke: rgb(255, 255, 255);" transform="matrix(0.697185, -0.716892, 0.533713, 0.885541, -97.736595, 206.401047)"/>
  </g>
  <rect x="259.482" y="300.379" width="65.977" height="22.674" style="paint-order: stroke; fill: rgb(255, 255, 255); stroke: rgb(255, 255, 255);"/>
</svg>